<svg xmlns="http://www.w3.org/2000/svg" viewBox="0 0 96.38 96.38">
  <g>
    <path fill="#FDF8F2" stroke="#DFDFDD" d="M23.96,28.8l3.21,25.67h40.78l3.21-25.67c-.76-11.81-47.19,0-47.19,0Z"/>
    <path fill="#3c2619" d="M67.95,54.37H27.1l2,15.98h.08l.59,4.75h-.02l1.14,9.13c.21,1.7,1.66,2.97,3.37,2.97h26.61c1.71,0,3.16-1.27,3.37-2.97l1.14-9.13h-.02l.59-4.75h.07l2-15.98h-.07Z"/>
    <path fill="none" stroke="#1d1d1b" stroke-miterlimit="10" d="M25.93,13.38c-2.06,0-3.65,1.8-3.4,3.85l8.36,66.86c.21,1.7,1.66,2.97,3.37,2.97h26.61c1.71,0,3.16-1.27,3.37-2.97l8.36-66.86c.26-2.04-1.34-3.85-3.4-3.85H25.93Z"/>
    <path fill="none" stroke="#1d1d1b" stroke-miterlimit="10" d="M70.52,32.27c.8-.62,1.76-1.04,2.84-1.23,1.98-.34,4.04.19,5.5,1.41,2.48,2.08,3.43,5.86,2.36,9.39-.82,2.72-2.69,5.21-5.55,7.39-2.28,1.74-4.85,3.06-7.57,3.89"/>
  </g>
</svg>
