<?xml version="1.0" encoding="UTF-8"?>
<svg id="Calque_2" xmlns="http://www.w3.org/2000/svg" viewBox="0 0 93.88 53.55">
  <defs>
    <style>
      .cls-1 {
        fill: #3c2619;
      }

      .cls-2 {
        fill: none;
        stroke: #1d1d1b;
        stroke-miterlimit: 10;
      }
    </style>
  </defs>
  <g id="Calque_1-2" data-name="Calque_1">
    <g>
      <path class="cls-2" d="M74.98.5c3.24,0,5.86,2.62,5.86,5.86v.83c-.18,28.27-10.45,36.88-21.28,44.41-.99.69-2.16,1.06-3.36,1.06h-30.97c-1.2,0-2.38-.37-3.36-1.06C11.02,44.07.75,35.45.57,7.19v-.83C.57,3.12,3.19.5,6.43.5h68.55Z"/>
      <path class="cls-2" d="M80.57,11.61c.91-.71,2.03-1.2,3.27-1.41,2.28-.39,4.65.21,6.33,1.62,2.86,2.39,3.95,6.73,2.72,10.8-.95,3.13-3.09,5.99-6.38,8.5-3.63,2.77-7.9,4.61-12.35,5.32"/>
      <line class="cls-2" y1="53.05" x2="80.19" y2="53.05"/>
      <path class="cls-1" d="M4.83,32.95c2.16,5.09,4.98,8.89,8.15,12.01,2.75,2.71,5.75,4.91,8.8,7.03.99.69,2.16,1.06,3.36,1.06h30.97c1.2,0,2.38-.37,3.36-1.06,3.05-2.12,6.05-4.32,8.8-7.03,3.17-3.12,6-6.92,8.15-12.01H4.83Z"/>
    </g>
  </g>
</svg>