<?xml version="1.0" encoding="UTF-8"?>
<svg id="Calque_2" xmlns="http://www.w3.org/2000/svg" viewBox="0 0 93.81 61.29">
  <defs>
    <style>
      .cls-1 {
        fill: #3c2619;
      }

      .cls-2 {
        fill: #e8e2d8;
      }

      .cls-3 {
        fill: none;
        stroke: #1d1d1b;
        stroke-miterlimit: 10;
      }
    </style>
  </defs>
  <g id="Calque_1-2" data-name="Calque_1">
    <g>
      <g>
        <path class="cls-2" d="M72.6,47.53c3.14-4.48,5.63-10.22,6.98-18.18h-.07c-1.41,7.98-3.97,13.72-7.18,18.18h.28Z"/>
        <path class="cls-2" d="M1.55,29.35c1.35,7.96,3.84,13.7,6.98,18.18h.28c-3.22-4.46-5.78-10.2-7.18-18.18h-.07Z"/>
        <g>
          <path class="cls-2" d="M80.7,14.93v-.83c0-3.24-2.62-5.86-5.86-5.86-18.45-18.55-68.55,0-68.55,0C3.05,8.24.43,10.87.43,14.1v.83c.03,4.24.29,8.02.73,11.44h78.79c.45-3.41.71-7.2.73-11.44Z"/>
          <path class="cls-2" d="M1.17,26.36c.14,1.03.29,2.03.46,2.99,1.41,7.98,3.97,13.72,7.18,18.18h63.51c3.22-4.46,5.78-10.2,7.18-18.18.17-.96.32-1.96.46-2.99H1.17Z"/>
        </g>
      </g>
      <path class="cls-3" d="M74.91,8.24c3.24,0,5.86,2.62,5.86,5.86v.83c-.18,28.27-10.45,36.88-21.28,44.41-.99.69-2.16,1.06-3.36,1.06h-30.97c-1.2,0-2.38-.37-3.36-1.06C10.95,51.81.68,43.2.5,14.93v-.83c0-3.24,2.62-5.86,5.86-5.86"/>
      <path class="cls-3" d="M80.5,19.35c.91-.71,2.03-1.2,3.27-1.41,2.28-.39,4.65.21,6.33,1.62,2.86,2.39,3.95,6.73,2.72,10.8-.95,3.13-3.09,5.99-6.38,8.5-3.63,2.77-7.9,4.61-12.35,5.32"/>
      <line class="cls-3" x1=".43" y1="60.79" x2="80.62" y2="60.79"/>
      <path class="cls-1" d="M8.53,47.53c1.35,1.93,2.83,3.63,4.38,5.16,2.75,2.71,5.75,4.91,8.8,7.03,2,1.89,10.84.78,13.34,1.06,0,0,11.01,0,11.01,0,11.09.63,14.06-.12,22.14-8.09,1.56-1.53,3.03-3.23,4.38-5.16H8.53Z"/>
    </g>
  </g>
</svg>