<svg xmlns="http://www.w3.org/2000/svg" viewBox="0 0 96.38 96.38">
  <g>
    <path fill="#FDF8F2" stroke="#DFDFDD" d="M69.52,19.95h-1.21c-.07-1.52-.6-3.07-1.42-4.35-.75-1.19-1.72-2.24-2.83-3.09-2.57-1.97-5.79-2.82-8.79-4-3.01-1.19-6.06-2.95-7.38-5.91-1.32,2.95-4.37,4.72-7.38,5.91-3.01,1.19-6.23,2.04-8.79,4-1.12.86-2.08,1.91-2.83,3.09-.82,1.29-1.35,2.84-1.42,4.35h-1.21c-2.06,0-3.65,1.8-3.4,3.85l1.54,12.28h46.99l1.54-12.28c.26-2.04-1.34-3.85-3.4-3.85Z"/>
    <polygon fill="#e5dccf" points="71.39 36.09 24.4 36.09 27.51 60.95 68.28 60.95 71.39 36.09"/>
    <polygon fill="#3c2619" points="68.28 60.95 27.51 60.95 27.43 60.95 29.43 76.93 29.5 76.93 30.1 81.68 65.69 81.68 66.28 76.93 66.35 76.93 68.35 60.95 68.28 60.95"/>
    <path fill="#8f6a48" d="M61.2,93.64h-26.61c-1.71,0-3.16-1.27-3.37-2.97l-1.12-8.99h-.02l1.14,9.13c.21,1.7,1.66,2.97,3.37,2.97h26.61c1.71,0,3.16-1.27,3.37-2.97l1.14-9.13h-.02l-1.12,8.99c-.21,1.7-1.66,2.97-3.37,2.97Z"/>
    <path fill="#8f6a48" d="M31.22,90.67c.21,1.7,1.66,2.97,3.37,2.97h26.61c1.71,0,3.16-1.27,3.37-2.97l1.12-8.99H30.1l1.12,8.99Z"/>
    <path fill="#3c2619" d="M26.18,20.58c.99,0,1.34-1.25.16-1.25-.99,0-1.34,1.25-.16,1.25h0Z"/>
    <path fill="none" stroke="#1d1d1b" stroke-miterlimit="10" d="M26.26,19.95c-2.06,0-3.65,1.8-3.4,3.85l8.36,66.86c.21,1.7,1.66,2.97,3.37,2.97h26.61c1.71,0,3.16-1.27,3.37-2.97l8.36-66.86c.26-2.04-1.34-3.85-3.4-3.85"/>
    <path fill="none" stroke="#1d1d1b" stroke-miterlimit="10" d="M70.85,38.85c.8-.62,1.76-1.04,2.84-1.23,1.98-.34,4.04.19,5.5,1.41,2.48,2.08,3.43,5.86,2.36,9.39-.82,2.72-2.69,5.21-5.55,7.39-2.28,1.74-4.85,3.06-7.57,3.89"/>
  </g>
</svg>
