<?xml version="1.0" encoding="UTF-8"?>
<svg id="Calque_2" xmlns="http://www.w3.org/2000/svg" viewBox="0 0 54.41 47.14">
  <defs>
    <style>
      .cls-1 {
        fill: #3c2619;
      }

      .cls-2 {
        fill: #e8e2d8;
      }

      .cls-3 {
        fill: none;
        stroke: #1d1d1b;
        stroke-miterlimit: 10;
      }
    </style>
  </defs>
  <g id="Calque_1-2" data-name="Calque_1">
    <g>
      <polygon class="cls-2" points="4.58 20.15 43.51 20.15 45.15 11.97 2.39 11.97 4.58 20.15"/>
      <path class="cls-1" d="M4.58,20.15l3.61,13.46h.04l2.54,9.47c.46,1.71,2,2.89,3.77,2.89h18.46c1.77,0,3.31-1.19,3.77-2.89l2.54-9.47h.04l3.61-13.46H4.58Z"/>
      <path class="cls-3" d="M45.44,10.88c1.93-.07,3.84.55,5.26,1.73,2.86,2.39,3.95,6.73,2.72,10.8-.95,3.13-3.09,5.99-6.38,8.5-2.62,2-5.58,3.52-8.7,4.47"/>
      <path class="cls-3" d="M43.13.5H4.4C1.84.5-.03,2.93.63,5.41l3.95,14.74,3.61,13.46,2.58,9.63c.46,1.71,2,2.89,3.77,2.89h18.46c1.77,0,3.31-1.19,3.77-2.89l2.58-9.63,3.61-13.46,3.95-14.74c.66-2.48-1.2-4.91-3.77-4.91Z"/>
      <line class="cls-3" x1=".5" y1="46.64" x2="47.04" y2="46.64"/>
    </g>
  </g>
</svg>