<svg xmlns="http://www.w3.org/2000/svg" viewBox="0 0 96.38 96.38">
  <g>
    <path fill="#FDF8F2" stroke="#DFDFDD" d="M33.32,53.71l1.48,5.53h27.09l1.48-5.53c-3.82-5.46-30.06,0-30.06,0Z"/>
    <path fill="#3c2619" d="M34.84,59.24l2.21,8.23c.4,1.48,1.74,2.51,3.28,2.51h16.05c1.54,0,2.88-1.03,3.28-2.51l2.21-8.23h-27.02Z"/>
    <path fill="none" stroke="#1d1d1b" stroke-miterlimit="10" d="M31.51,30.45c-2.23,0-3.85,2.12-3.28,4.27l8.81,32.9c.4,1.48,1.74,2.51,3.28,2.51h16.05c1.54,0,2.88-1.03,3.28-2.51l8.81-32.9c.58-2.15-1.05-4.27-3.28-4.27H31.51Z"/>
    <path fill="none" stroke="#1d1d1b" stroke-miterlimit="10" d="M67.19,39.48c1.68-.06,3.34.47,4.57,1.51,2.48,2.08,3.43,5.86,2.36,9.39-.82,2.72-2.69,5.21-5.55,7.39-2.28,1.74-4.85,3.06-7.57,3.89"/>
  </g>
</svg>
