<svg xmlns="http://www.w3.org/2000/svg" viewBox="0 0 96.38 96.38">
  <g>
    <path fill="#FDF8F2" stroke="#DFDFDD" d="M11.75,48.08c1.68,9.9,5.39,15.87,9.88,20.3h48.09c4.5-4.43,8.2-10.39,9.88-20.3-7.8-18.27-67.85,0-67.85,0Z"/>
    <path fill="#3c2619" d="M29.28,74.49c.86.6,1.88.92,2.93.92h26.93c1.05,0,2.07-.33,2.93-.92,2.65-1.84,5.26-3.76,7.65-6.11H21.63c2.39,2.35,5,4.27,7.65,6.11Z"/>
    <path fill="none" stroke="#1d1d1b" stroke-miterlimit="10" d="M75.54,29.72c2.81,0,5.09,2.28,5.09,5.09v.72c-.16,24.58-9.09,32.07-18.51,38.62-.86.6-1.88.92-2.93.92h-26.93c-1.05,0-2.07-.33-2.93-.92-9.42-6.55-18.35-14.04-18.51-38.62v-.72c0-2.81,2.28-5.09,5.09-5.09h59.61Z"/>
    <path fill="none" stroke="#1d1d1b" stroke-miterlimit="10" d="M80.4,39.38c.8-.62,1.76-1.04,2.84-1.23,1.98-.34,4.04.19,5.5,1.41,2.48,2.08,3.43,5.86,2.36,9.39-.82,2.72-2.69,5.21-5.55,7.39-3.15,2.41-6.87,4.01-10.74,4.62"/>
  </g>
</svg>
