<?xml version="1.0" encoding="UTF-8"?>
<svg id="Calque_2" xmlns="http://www.w3.org/2000/svg" viewBox="0 0 69.02 105.37">
  <defs>
    <style>
      .cls-1 {
        fill: #3c2619;
      }

      .cls-2, .cls-3 {
        fill: none;
      }

      .cls-4 {
        fill: #8f6a48;
      }

      .cls-5 {
        fill: #e8e2d8;
      }

      .cls-3 {
        stroke: #1d1d1b;
        stroke-miterlimit: 10;
      }
    </style>
  </defs>
  <g id="Calque_1-2" data-name="Calque_1">
    <g>
      <polygon class="cls-1" points="56.34 38.52 2.3 38.52 6.41 71.43 52.22 71.43 56.34 38.52"/>
      <path class="cls-5" d="M6.41,71.43l3.73,29.85c.24,1.95,1.9,3.42,3.87,3.42h30.6c1.97,0,3.63-1.47,3.87-3.42l3.73-29.85H6.41Z"/>
      <g>
        <path class="cls-4" d="M48.49,101.28c-.24,1.95-1.9,3.42-3.87,3.42H14.02c-1.97,0-3.63-1.47-3.87-3.42l-1.29-10.34h-.02l1.31,10.5c.24,1.95,1.9,3.42,3.87,3.42h30.6c1.97,0,3.63-1.47,3.87-3.42l1.31-10.5h-.02l-1.29,10.34Z"/>
        <path class="cls-2" d="M52.84,67.11h-.08l3.57-28.59H2.3l3.57,28.59h-.09l2.3,18.38h.09l.68,5.46,1.29,10.34c.24,1.95,1.9,3.42,3.87,3.42h30.6c1.97,0,3.63-1.47,3.87-3.42l1.29-10.34.68-5.46h.08l2.3-18.38Z"/>
      </g>
      <path class="cls-5" d="M54.19,19.96h-1.39c-.08-1.75-.69-3.53-1.63-5.01-.87-1.36-1.98-2.57-3.26-3.56-2.95-2.26-6.65-3.24-10.11-4.61-3.46-1.37-6.97-3.4-8.49-6.79-1.52,3.4-5.03,5.43-8.49,6.79-3.46,1.37-7.16,2.34-10.11,4.61-1.28.98-2.39,2.19-3.26,3.56-.94,1.48-1.55,3.26-1.63,5.01h-1.39c-2.37,0-4.2,2.07-3.91,4.42l1.77,14.13h54.04l1.77-14.13c.29-2.35-1.54-4.42-3.91-4.42Z"/>
      <line class="cls-3" x1=".5" y1="104.87" x2="58.12" y2="104.87"/>
      <path class="cls-3" d="M55.71,41.69c.91-.71,2.03-1.2,3.27-1.41,2.28-.39,4.65.21,6.33,1.62,2.86,2.39,3.95,6.73,2.72,10.8-.95,3.13-3.09,5.99-6.38,8.5-2.62,2-5.58,3.52-8.7,4.47"/>
      <path class="cls-3" d="M4.44,19.96c-2.37,0-4.2,2.07-3.91,4.42l9.61,76.89c.24,1.95,1.9,3.42,3.87,3.42h30.6c1.97,0,3.63-1.47,3.87-3.42l9.61-76.89c.29-2.35-1.54-4.42-3.91-4.42"/>
    </g>
  </g>
</svg>