<?xml version="1.0" encoding="UTF-8"?>
<svg id="Calque_2" xmlns="http://www.w3.org/2000/svg" viewBox="0 0 54.41 47.14">
  <defs>
    <style>
      .cls-1 {
        fill: #3c2619;
      }

      .cls-2 {
        fill: none;
        stroke: #1d1d1b;
        stroke-miterlimit: 10;
      }
    </style>
  </defs>
  <g id="Calque_1-2" data-name="Calque_1">
    <g>
      <path class="cls-1" d="M8.23,33.61l2.54,9.47c.46,1.71,2,2.89,3.77,2.89h18.46c1.77,0,3.31-1.19,3.77-2.89l2.54-9.47H8.23Z"/>
      <path class="cls-2" d="M4.4.5C1.84.5-.03,2.93.63,5.41l10.13,37.84c.46,1.71,2,2.89,3.77,2.89h18.46c1.77,0,3.31-1.19,3.77-2.89L46.9,5.41c.66-2.48-1.2-4.91-3.77-4.91H4.4Z"/>
      <path class="cls-2" d="M45.44,10.88c1.93-.07,3.84.55,5.26,1.73,2.86,2.39,3.95,6.73,2.72,10.8-.95,3.13-3.09,5.99-6.38,8.5-2.62,2-5.58,3.52-8.7,4.47"/>
      <line class="cls-2" x1=".5" y1="46.64" x2="47.04" y2="46.64"/>
    </g>
  </g>
</svg>